<?xml version="1.0" encoding="UTF-8" standalone="no"?>
<!DOCTYPE svg PUBLIC "-//W3C//DTD SVG 1.1//EN"
"http://www.w3.org/Graphics/SVG/1.1/DTD/svg11.dtd">
<svg viewBox="0 0 909 1286" version="1.1" xmlns="http://www.w3.org/2000/svg" xmlns:xlink="http://www.w3.org/1999/xlink">
<defs>
<style type="text/css"><![CDATA[
.g1_1{
fill: #9F9F9F;
}
.g2_1{
fill: #E2E2E2;
}
]]></style>
</defs>
<image preserveAspectRatio="none" x="696" y="43" width="158" height="214" xlink:href="img/1.png" />
<path fill-rule="evenodd" d="M55,309.3l801.3,0l0,-2.4L55,306.9l0,2.4Z" class="g1_1" />
<path fill-rule="evenodd" d="M55,307.3l0.4,0l0,-0.4l-0.4,0l0,0.4Z" class="g1_1" />
<path fill-rule="evenodd" d="M55,307.3l0.4,0l0,-0.4l-0.4,0l0,0.4Z" class="g1_1" />
<path fill-rule="evenodd" d="M55.4,307.3l800.8,0l0,-0.4l-800.8,0l0,0.4Z" class="g1_1" />
<path fill-rule="evenodd" d="M856.2,307.3l0.3,0l0,-0.4l-0.3,0l0,0.4Z" class="g2_1" />
<path fill-rule="evenodd" d="M856.2,307.3l0.3,0l0,-0.4l-0.3,0l0,0.4Z" class="g1_1" />
<path fill-rule="evenodd" d="M55,308.9l0.4,0l0,-1.6l-0.4,0l0,1.6Z" class="g1_1" />
<path fill-rule="evenodd" d="M856.2,308.9l0.3,0l0,-1.6l-0.3,0l0,1.6Z" class="g2_1" />
<path fill-rule="evenodd" d="M55,309.3l0.4,0l0,-0.4l-0.4,0l0,0.4Z" class="g1_1" />
<path fill-rule="evenodd" d="M55,309.3l0.4,0l0,-0.4l-0.4,0l0,0.4Z" class="g2_1" />
<path fill-rule="evenodd" d="M55.4,309.3l800.8,0l0,-0.4l-800.8,0l0,0.4Z" class="g2_1" />
<path fill-rule="evenodd" d="M856.2,309.3l0.3,0l0,-0.4l-0.3,0l0,0.4Z" class="g2_1" />
<path fill-rule="evenodd" d="M856.2,309.3l0.3,0l0,-0.4l-0.3,0l0,0.4Z" class="g2_1" />
<path fill-rule="evenodd" d="M55,519l801.3,0l0,-2.4L55,516.6l0,2.4Z" class="g1_1" />
<path fill-rule="evenodd" d="M55,517.1l0.4,0l0,-0.4l-0.4,0l0,0.4Z" class="g1_1" />
<path fill-rule="evenodd" d="M55,517.1l0.4,0l0,-0.4l-0.4,0l0,0.4Z" class="g1_1" />
<path fill-rule="evenodd" d="M55.4,517.1l800.8,0l0,-0.4l-800.8,0l0,0.4Z" class="g1_1" />
<path fill-rule="evenodd" d="M856.2,517.1l0.3,0l0,-0.4l-0.3,0l0,0.4Z" class="g2_1" />
<path fill-rule="evenodd" d="M856.2,517.1l0.3,0l0,-0.4l-0.3,0l0,0.4Z" class="g1_1" />
<path fill-rule="evenodd" d="M55,518.7l0.4,0l0,-1.6l-0.4,0l0,1.6Z" class="g1_1" />
<path fill-rule="evenodd" d="M856.2,518.7l0.3,0l0,-1.6l-0.3,0l0,1.6Z" class="g2_1" />
<path fill-rule="evenodd" d="M55,519.1l0.4,0l0,-0.4l-0.4,0l0,0.4Z" class="g1_1" />
<path fill-rule="evenodd" d="M55,519.1l0.4,0l0,-0.4l-0.4,0l0,0.4Z" class="g2_1" />
<path fill-rule="evenodd" d="M55.4,519.1l800.8,0l0,-0.4l-800.8,0l0,0.4Z" class="g2_1" />
<path fill-rule="evenodd" d="M856.2,519.1l0.3,0l0,-0.4l-0.3,0l0,0.4Z" class="g2_1" />
<path fill-rule="evenodd" d="M856.2,519.1l0.3,0l0,-0.4l-0.3,0l0,0.4Z" class="g2_1" />
<path fill-rule="evenodd" d="M55,751.5l801.3,0l0,-2.4L55,749.1l0,2.4Z" class="g1_1" />
<path fill-rule="evenodd" d="M55,749.6l0.4,0l0,-0.4l-0.4,0l0,0.4Z" class="g1_1" />
<path fill-rule="evenodd" d="M55,749.6l0.4,0l0,-0.4l-0.4,0l0,0.4Z" class="g1_1" />
<path fill-rule="evenodd" d="M55.4,749.6l800.8,0l0,-0.4l-800.8,0l0,0.4Z" class="g1_1" />
<path fill-rule="evenodd" d="M856.2,749.6l0.3,0l0,-0.4l-0.3,0l0,0.4Z" class="g2_1" />
<path fill-rule="evenodd" d="M856.2,749.6l0.3,0l0,-0.4l-0.3,0l0,0.4Z" class="g1_1" />
<path fill-rule="evenodd" d="M55,751.2l0.4,0l0,-1.6l-0.4,0l0,1.6Z" class="g1_1" />
<path fill-rule="evenodd" d="M856.2,751.2l0.3,0l0,-1.6l-0.3,0l0,1.6Z" class="g2_1" />
<path fill-rule="evenodd" d="M55,751.6l0.4,0l0,-0.4l-0.4,0l0,0.4Z" class="g1_1" />
<path fill-rule="evenodd" d="M55,751.6l0.4,0l0,-0.4l-0.4,0l0,0.4Z" class="g2_1" />
<path fill-rule="evenodd" d="M55.4,751.6l800.8,0l0,-0.4l-800.8,0l0,0.4Z" class="g2_1" />
<path fill-rule="evenodd" d="M856.2,751.6l0.3,0l0,-0.4l-0.3,0l0,0.4Z" class="g2_1" />
<path fill-rule="evenodd" d="M856.2,751.6l0.3,0l0,-0.4l-0.3,0l0,0.4Z" class="g2_1" />
<path fill-rule="evenodd" d="M55,1108.6l801.3,0l0,-2.3l-801.3,0l0,2.3Z" class="g1_1" />
<path fill-rule="evenodd" d="M55,1106.8l0.4,0l0,-0.4l-0.4,0l0,0.4Z" class="g1_1" />
<path fill-rule="evenodd" d="M55,1106.8l0.4,0l0,-0.4l-0.4,0l0,0.4Z" class="g1_1" />
<path fill-rule="evenodd" d="M55.4,1106.8l800.8,0l0,-0.4l-800.8,0l0,0.4Z" class="g1_1" />
<path fill-rule="evenodd" d="M856.2,1106.8l0.3,0l0,-0.4l-0.3,0l0,0.4Z" class="g2_1" />
<path fill-rule="evenodd" d="M856.2,1106.8l0.3,0l0,-0.4l-0.3,0l0,0.4Z" class="g1_1" />
<path fill-rule="evenodd" d="M55,1108.4l0.4,0l0,-1.6l-0.4,0l0,1.6Z" class="g1_1" />
<path fill-rule="evenodd" d="M856.2,1108.4l0.3,0l0,-1.6l-0.3,0l0,1.6Z" class="g2_1" />
<path fill-rule="evenodd" d="M55,1108.8l0.4,0l0,-0.4l-0.4,0l0,0.4Z" class="g1_1" />
<path fill-rule="evenodd" d="M55,1108.8l0.4,0l0,-0.4l-0.4,0l0,0.4Z" class="g2_1" />
<path fill-rule="evenodd" d="M55.4,1108.8l800.8,0l0,-0.4l-800.8,0l0,0.4Z" class="g2_1" />
<path fill-rule="evenodd" d="M856.2,1108.8l0.3,0l0,-0.4l-0.3,0l0,0.4Z" class="g2_1" />
<path fill-rule="evenodd" d="M856.2,1108.8l0.3,0l0,-0.4l-0.3,0l0,0.4Z" class="g2_1" />
</svg>